<svg xmlns="http://www.w3.org/2000/svg" fill="none" viewBox="0 0 1412 339">
  <defs/>
  <path fill="#0C0F27" d="M470.7 10.6c16.2 0 29.2 11.6 29.2 27.3 0 15.8-13 27.4-29.2 27.4-15.8 0-29.2-11.6-29.2-27.4 0-15.7 13.4-27.3 29.2-27.3zm20.8 107h-41.7v216.2h41.7V117.6zM604 333.8h-42.1V117.6H604v32.5c13-26 44-37 67.6-37 53.7 0 83.4 35.1 83.4 95.8v125h-42.1V211.7c0-36.1-18.1-57.5-47.7-57.5-30.6 0-61.1 17.1-61.1 63v116.6h-.1zM993.4 300.5c-14.4 24.5-45.9 38-76 38-59.3 0-109.3-44.5-109.3-113 0-69 49.5-112.6 108.8-112.6 32 0 62 12.5 76.4 37V0h42v333.8h-42v-33.3zm-72.2-146.3c-39 0-70 27.7-70 70.8 0 42.6 31 72.2 70 72.2 37.9 0 71.7-26.4 71.7-72.2 0-46.3-37-70.8-71.7-70.8zM1126.8 10.6c16.1 0 29.1 11.6 29.1 27.3 0 15.8-12.9 27.4-29.2 27.4-15.7 0-29.1-11.6-29.1-27.4 0-15.7 13.4-27.3 29.2-27.3zm20.8 107h-41.7v216.2h41.7V117.6zM1235 117.6l65.8 162.5 65.3-162.5h45l-90.3 216.2h-40.3l-89.8-216.2h44.3z"/>
  <path fill="#004C3E" d="M219.9 64.4H73.3L0 191.4l73.3 126.9h146.6l73.3-127-73.3-127z"/>
</svg>
